<svg xmlns="http://www.w3.org/2000/svg" width="1200" height="300" viewBox="0 0 1200 300"><rect width="1200" height="300" rx="24" fill="#fff7ed"/><text x="60" y="60" font-family="Arial" font-size="28" font-weight="700" fill="#9a3412">Materials VLM Inference Benchmark · Demo Flow</text><g font-family="Arial" text-anchor="middle"><g fill="#fff" stroke="#fed7aa" stroke-width="2"><rect x="60" y="105" width="190" height="110" rx="16"/><rect x="310" y="105" width="190" height="110" rx="16"/><rect x="560" y="105" width="190" height="110" rx="16"/><rect x="810" y="105" width="190" height="110" rx="16"/></g><g fill="#9a3412" font-size="18" font-weight="700"><text x="155" y="145">1. Select Images</text><text x="405" y="145">2. Test Endpoint</text><text x="655" y="145">3. Benchmark VLM</text><text x="905" y="145">4. Review Results</text></g><g fill="#4b5563" font-size="14"><text x="155" y="175">materials modalities</text><text x="405" y="175">mock / remote / cloud</text><text x="655" y="175">single · multi-image</text><text x="905" y="175">quality + latency</text></g></g><g stroke="#f97316" stroke-width="5"><path d="M250 160h52"/><path d="M500 160h52"/><path d="M750 160h52"/></g><g fill="#f97316"><path d="M302 153l14 7-14 7z"/><path d="M552 153l14 7-14 7z"/><path d="M802 153l14 7-14 7z"/></g></svg>
